0
SECTION
2
ENTITIES
0
LWPOLYLINE
8
研学工坊
90
4
70
1
10
289.000
20
-287.000
10
340.000
20
-288.000
10
340.000
20
-376.000
10
289.000
20
-374.000
0
TEXT
8
功能标注
10
314.500
20
-331.250
40
14.000
1
设备间
0
LWPOLYLINE
8
研学工坊
90
6
70
1
10
341.000
20
-260.000
10
487.000
20
-260.000
10
487.000
20
-380.000
10
340.000
20
-380.000
10
340.000
20
-288.000
10
341.000
20
-288.000
0
TEXT
8
功能标注
10
389.333
20
-309.333
40
14.000
1
研学工坊
0
LWPOLYLINE
8
农耕文化展览
90
4
70
1
10
205.000
20
-370.000
10
339.000
20
-377.000
10
333.000
20
-482.000
10
197.000
20
-478.000
0
TEXT
8
功能标注
10
268.500
20
-426.750
40
14.000
1
农耕文化展览 / 多功能教室
0
LWPOLYLINE
8
农耕文化展览
90
4
70
1
10
198.000
20
-478.000
10
332.000
20
-482.000
10
330.000
20
-528.000
10
194.000
20
-528.000
0
TEXT
8
功能标注
10
263.500
20
-504.000
40
14.000
1
多功能教室
0
LWPOLYLINE
8
公共休息
90
4
70
1
10
519.000
20
-246.000
10
619.000
20
-245.000
10
622.000
20
-316.000
10
521.000
20
-320.000
0
TEXT
8
功能标注
10
570.250
20
-281.750
40
14.000
1
休息区
0
LWPOLYLINE
8
沿河廊桥
90
4
70
1
10
681.000
20
-178.000
10
781.000
20
-186.000
10
775.000
20
-258.000
10
675.000
20
-252.000
0
TEXT
8
功能标注
10
728.000
20
-218.500
40
14.000
1
沿河廊桥
0
LWPOLYLINE
8
夜游体验
90
4
70
1
10
801.000
20
-169.000
10
904.000
20
-196.000
10
884.000
20
-286.000
10
776.000
20
-258.000
0
TEXT
8
功能标注
10
841.250
20
-227.250
40
14.000
1
夜游展示 / 灯光体验
0
LWPOLYLINE
8
公共休息
90
4
70
1
10
669.000
20
-319.000
10
737.000
20
-321.000
10
733.000
20
-367.000
10
668.000
20
-365.000
0
TEXT
8
功能标注
10
701.750
20
-343.000
40
14.000
1
连接平台
0
LWPOLYLINE
8
夜游体验
90
4
70
1
10
916.000
20
-238.000
10
998.000
20
-249.000
10
998.000
20
-325.000
10
909.000
20
-323.000
0
TEXT
8
功能标注
10
955.250
20
-283.750
40
14.000
1
夜游展示
0
LWPOLYLINE
8
居民生活区
90
4
70
1
10
908.000
20
-324.000
10
998.000
20
-325.000
10
981.000
20
-420.000
10
904.000
20
-417.000
0
TEXT
8
功能标注
10
947.750
20
-371.500
40
14.000
1
居民生活区
0
LWPOLYLINE
8
夜游活动庭院
90
8
70
1
10
675.000
20
-252.000
10
775.000
20
-258.000
10
786.000
20
-286.000
10
906.000
20
-314.000
10
905.000
20
-417.000
10
734.000
20
-367.000
10
668.000
20
-365.000
10
669.000
20
-319.000
0
TEXT
8
功能标注
10
822.000
20
-343.000
40
16.000
1
夜游活动庭院
0
LWPOLYLINE
8
农事活动区
90
10
70
1
10
76.000
20
-636.000
10
222.000
20
-608.000
10
489.000
20
-641.000
10
758.000
20
-669.000
10
875.000
20
-640.000
10
1006.000
20
-610.000
10
1111.000
20
-608.000
10
1214.000
20
-638.000
10
1214.000
20
-822.000
10
76.000
20
-822.000
0
TEXT
8
功能标注
10
548.000
20
-707.000
40
18.000
1
农事活动区 / 农田 / 菜园 / 劳作场地
0
ENDSEC
0
EOF