<svg xmlns="http://www.w3.org/2000/svg" width="2200" height="1400" viewBox="0 0 2200 1400">
  <defs>
    <style>
      .bg{fill:#f8f5ed}
      .sheetText{font-family:"PingFang SC","Microsoft YaHei",Arial,sans-serif;fill:#2b2925}
      .title{font-size:42px;font-weight:700}
      .sub{font-size:20px;fill:#716a60}
      .room{font-size:24px;font-weight:700}
      .note{font-size:16px;fill:#60584e}
      .tiny{font-size:13px;fill:#716a60}
      .wall{stroke:#25221f;stroke-width:10;stroke-linejoin:miter;fill:none}
      .innerWall{stroke:#25221f;stroke-width:5;stroke-linecap:square;fill:none}
      .thin{stroke:#7f776d;stroke-width:2;fill:none}
      .dash{stroke:#9a8e7d;stroke-width:2;stroke-dasharray:8 8;fill:none}
      .dim{stroke:#8f8578;stroke-width:2;fill:none;marker-start:url(#tick);marker-end:url(#tick)}
      .grid{stroke:#cfc6b6;stroke-width:1.2;fill:none}
      .platform{fill:#dfd2bc;stroke:#a69478;stroke-width:4}
      .field{fill:#d8d998;stroke:#8e9c48;stroke-width:4}
      .fieldLine{stroke:#a1aa58;stroke-width:3;fill:none;opacity:.75}
      .contour{stroke:#d6c981;stroke-width:3;fill:none;opacity:.65}
      .contourMajor{stroke:#9fb579;stroke-width:4;fill:none;opacity:.65}
      .stonePaving{fill:url(#stonePaving);stroke:#aa9a82;stroke-width:2}
      .service{fill:#e8b678}
      .textile{fill:#dba46f}
      .research{fill:#b9c99e}
      .reception{fill:#c8b8df}
      .tea{fill:#b7d4c7}
      .exhibit{fill:#efc57d}
      .public{fill:#f0e5d4}
      .grey{fill:#d8d0c3}
      .wet{fill:#cbd9db}
      .wood{fill:#b78a5d;stroke:#6e5438;stroke-width:2}
      .furn{fill:#d8c3a2;stroke:#806b51;stroke-width:2}
      .tree{fill:#6e995b;stroke:#31552e;stroke-width:3}
      .shrub{fill:#91b675;stroke:#587b48;stroke-width:2}
      .legend{fill:#fffaf1;stroke:#c7b99f;stroke-width:2}
      .north{fill:#2b2925}
    </style>
    <marker id="tick" markerWidth="10" markerHeight="10" refX="5" refY="5" orient="auto">
      <path d="M1,9 L9,1" stroke="#8f8578" stroke-width="2"/>
    </marker>
    <pattern id="stonePaving" width="58" height="42" patternUnits="userSpaceOnUse">
      <rect width="58" height="42" fill="#dfd2bc"/>
      <path d="M0 14H58M0 28H58M18 0V14M42 14V28M12 28V42M48 28V42" stroke="#b9aa92" stroke-width="2" fill="none" opacity=".7"/>
    </pattern>
    <pattern id="farmRows" width="70" height="48" patternUnits="userSpaceOnUse">
      <rect width="70" height="48" fill="#d8d998"/>
      <path d="M-8 44 C16 28 38 30 78 12M-8 24 C16 8 38 10 78 -8" stroke="#a1aa58" stroke-width="2" fill="none" opacity=".75"/>
    </pattern>
  </defs>

  <rect class="bg" width="2200" height="1400"/>
  <text x="86" y="78" class="sheetText title">建筑平面方案彩平图</text>
  <text x="88" y="116" class="sheetText sub">依据手绘草图整理为正投影建筑平面：保留原建筑分布轮廓，下方为农田台地</text>

  <!-- top terrain / contours -->
  <path class="contour" d="M-40 190 C250 130 460 172 690 140 C940 105 1160 170 1370 125 C1640 70 1840 165 2240 115"/>
  <path class="contour" d="M-40 230 C250 175 460 214 690 185 C940 150 1160 218 1370 172 C1640 120 1840 220 2240 160"/>
  <path class="contourMajor" d="M-40 280 C250 222 460 265 690 235 C940 198 1160 274 1370 224 C1640 165 1840 280 2240 210"/>
  <path class="contour" d="M-40 340 C250 280 460 328 690 292 C940 250 1160 340 1370 285 C1640 212 1840 356 2240 270"/>

  <!-- site platform -->
  <path class="platform" d="M92,810 C250,690 444,650 654,665 C830,678 958,615 1128,548 C1320,472 1494,508 1670,618 C1842,725 1936,900 2070,1032 L1820,1070 C1640,922 1478,840 1245,870 C1038,898 880,810 660,796 C462,784 278,848 92,940 Z"/>
  <path class="stonePaving" d="M120,790 C270,700 450,685 650,700 C835,714 980,648 1145,590 C1308,532 1465,550 1626,648 C1775,740 1870,880 1988,1000 L1800,1028 C1630,900 1470,828 1250,852 C1048,876 884,792 665,778 C470,765 300,820 120,920 Z"/>

  <!-- farmland -->
  <path class="field" fill="url(#farmRows)" d="M0,980 C180,932 330,1010 560,962 C770,918 930,1020 1160,1004 C1370,990 1535,945 1745,1040 C1900,1110 2045,1084 2200,1040 L2200,1400 L0,1400 Z"/>
  <path class="fieldLine" d="M126 1142 C420 1068 760 1140 1036 1124 C1354 1108 1680 1172 2060 1092"/>
  <path class="fieldLine" d="M580 968 L705 1400M1165 1005 L1268 1400M1660 1010 L1750 1400"/>
  <text x="1000" y="1212" class="sheetText" style="font-size:40px;font-weight:700;fill:#657733">农田台地</text>

  <!-- main visitor route -->
  <path d="M182 774 C382 724 558 755 742 758 C910 760 1038 700 1198 638 C1362 574 1532 596 1682 700 C1818 794 1902 900 1992 1010" stroke="#b89562" stroke-width="26" fill="none" stroke-linecap="round" stroke-linejoin="round" opacity=".42"/>
  <path d="M182 774 C382 724 558 755 742 758 C910 760 1038 700 1198 638 C1362 574 1532 596 1682 700 C1818 794 1902 900 1992 1010" stroke="#876e4d" stroke-width="3" fill="none" stroke-linecap="round" stroke-linejoin="round"/>

  <!-- LEFT CLUSTER: service -->
  <g transform="rotate(-5 252 700)">
    <polygon class="service" points="145,600 330,600 330,770 145,770"/>
    <polygon class="wall" points="145,600 330,600 330,770 145,770"/>
    <line class="innerWall" x1="220" y1="600" x2="220" y2="770"/>
    <line class="innerWall" x1="220" y1="690" x2="330" y2="690"/>
    <rect class="wet" x="232" y="615" width="82" height="58"/>
    <rect class="furn" x="164" y="635" width="42" height="74"/>
    <path class="thin" d="M145 675 C185 675 205 650 205 610"/>
    <text x="176" y="790" class="sheetText room">入口服务</text>
    <text x="176" y="816" class="sheetText tiny">售票 / 候场 / 公共卫生间</text>
  </g>

  <!-- textile workshop -->
  <g transform="rotate(-1 555 602)">
    <polygon class="textile" points="420,468 770,468 770,680 420,680"/>
    <polygon class="wall" points="420,468 770,468 770,680 420,680"/>
    <line class="innerWall" x1="585" y1="468" x2="585" y2="680"/>
    <line class="innerWall" x1="420" y1="585" x2="770" y2="585"/>
    <rect class="public" x="438" y="486" width="128" height="78"/>
    <rect class="public" x="604" y="486" width="146" height="78"/>
    <rect class="public" x="438" y="605" width="312" height="54"/>
    <!-- looms and tables -->
    <rect class="wood" x="454" y="512" width="88" height="18"/>
    <rect class="wood" x="454" y="540" width="88" height="18"/>
    <rect class="wood" x="626" y="512" width="92" height="18"/>
    <rect class="wood" x="626" y="540" width="92" height="18"/>
    <rect class="furn" x="486" y="620" width="214" height="22"/>
    <path class="thin" d="M420 575 C462 575 480 548 480 508"/>
    <path class="thin" d="M770 580 C730 580 712 606 712 650"/>
    <text x="472" y="438" class="sheetText room">纺织工坊</text>
    <text x="472" y="464" class="sheetText tiny">织机体验 / 手作课程 / 材料展示</text>
  </g>

  <!-- research block -->
  <g transform="rotate(-4 890 622)">
    <polygon class="research" points="820,528 1018,528 1018,692 820,692"/>
    <polygon class="wall" points="820,528 1018,528 1018,692 820,692"/>
    <line class="innerWall" x1="914" y1="528" x2="914" y2="692"/>
    <rect class="public" x="840" y="548" width="54" height="122"/>
    <rect class="public" x="934" y="548" width="64" height="122"/>
    <rect class="wood" x="850" y="582" width="34" height="58"/>
    <rect class="wood" x="945" y="582" width="42" height="58"/>
    <path class="thin" d="M820 620 C858 620 878 596 878 560"/>
    <text x="832" y="500" class="sheetText room">研发土墙</text>
    <text x="832" y="524" class="sheetText tiny">材料样本 / 工法研究</text>
  </g>

  <!-- reception / interpretation hall -->
  <g transform="rotate(2 1195 542)">
    <polygon class="reception" points="1100,402 1425,402 1425,642 1100,642"/>
    <polygon class="wall" points="1100,402 1425,402 1425,642 1100,642"/>
    <line class="innerWall" x1="1222" y1="402" x2="1222" y2="642"/>
    <line class="innerWall" x1="1328" y1="402" x2="1328" y2="642"/>
    <line class="innerWall" x1="1222" y1="528" x2="1425" y2="528"/>
    <rect class="public" x="1125" y="430" width="74" height="174"/>
    <rect class="public" x="1245" y="430" width="62" height="78"/>
    <rect class="public" x="1245" y="548" width="62" height="62"/>
    <rect class="public" x="1350" y="430" width="52" height="78"/>
    <rect class="public" x="1350" y="548" width="52" height="62"/>
    <rect class="furn" x="1138" y="492" width="48" height="18"/>
    <rect class="furn" x="1256" y="458" width="38" height="18"/>
    <rect class="furn" x="1360" y="458" width="32" height="18"/>
    <path class="thin" d="M1100 520 C1144 520 1166 492 1166 448"/>
    <path class="thin" d="M1425 520 C1385 520 1368 550 1368 592"/>
    <text x="1138" y="370" class="sheetText room">接待讲解厅</text>
    <text x="1138" y="396" class="sheetText tiny">序厅 / 讲解 / 公共服务</text>
  </g>

  <!-- courtyard and pavilion -->
  <circle class="tree" cx="1458" cy="744" r="70"/>
  <circle class="shrub" cx="1418" cy="738" r="28"/>
  <circle class="shrub" cx="1496" cy="758" r="26"/>
  <polygon class="public" points="1272,750 1434,720 1454,804 1288,836"/>
  <polygon class="wall" points="1272,750 1434,720 1454,804 1288,836"/>
  <rect class="furn" x="1330" y="762" width="74" height="18" transform="rotate(-10 1367 771)"/>
  <text x="1282" y="862" class="sheetText room">农田观景休憩</text>
  <text x="1282" y="888" class="sheetText tiny">田埂边坐凳 / 小平台 / 保留树庭</text>

  <!-- tea block right upper -->
  <g transform="rotate(18 1600 500)">
    <polygon class="tea" points="1460,380 1746,380 1746,610 1460,610"/>
    <polygon class="wall" points="1460,380 1746,380 1746,610 1460,610"/>
    <line class="innerWall" x1="1566" y1="380" x2="1566" y2="610"/>
    <line class="innerWall" x1="1664" y1="380" x2="1664" y2="610"/>
    <line class="innerWall" x1="1460" y1="510" x2="1664" y2="510"/>
    <rect class="public" x="1480" y="408" width="66" height="78"/>
    <rect class="public" x="1586" y="408" width="58" height="78"/>
    <rect class="public" x="1480" y="532" width="164" height="52"/>
    <circle class="furn" cx="1514" cy="448" r="18"/>
    <circle class="furn" cx="1616" cy="448" r="18"/>
    <rect class="wood" x="1500" y="548" width="112" height="18"/>
    <path class="thin" d="M1460 500 C1500 500 1520 472 1520 430"/>
    <path class="thin" d="M1746 492 C1708 492 1688 520 1688 562"/>
    <text x="1502" y="350" class="sheetText room">茶饮体验</text>
    <text x="1502" y="376" class="sheetText tiny">茶席 / 吧台 / 备餐</text>
  </g>

  <!-- exhibition block right lower -->
  <g transform="rotate(12 1690 790)">
    <polygon class="exhibit" points="1510,665 1908,665 1908,950 1510,950"/>
    <polygon class="wall" points="1510,665 1908,665 1908,950 1510,950"/>
    <line class="innerWall" x1="1655" y1="665" x2="1655" y2="950"/>
    <line class="innerWall" x1="1785" y1="665" x2="1785" y2="950"/>
    <line class="innerWall" x1="1510" y1="805" x2="1908" y2="805"/>
    <rect class="public" x="1534" y="692" width="92" height="84"/>
    <rect class="public" x="1682" y="692" width="78" height="84"/>
    <rect class="public" x="1810" y="692" width="70" height="84"/>
    <rect class="public" x="1534" y="832" width="226" height="84"/>
    <rect class="public" x="1810" y="832" width="70" height="84"/>
    <rect class="wood" x="1552" y="724" width="54" height="18"/>
    <rect class="wood" x="1696" y="724" width="50" height="18"/>
    <rect class="wood" x="1568" y="868" width="150" height="18"/>
    <rect class="wood" x="1822" y="864" width="44" height="18"/>
    <path class="thin" d="M1510 798 C1552 798 1574 770 1574 724"/>
    <path class="thin" d="M1908 810 C1866 810 1846 838 1846 884"/>
    <text x="1634" y="988" class="sheetText room">展陈区</text>
    <text x="1634" y="1014" class="sheetText tiny">村史 / 工艺 / 产品陈列</text>
  </g>

  <!-- grid / axis markers -->
  <g opacity=".9">
    <line class="grid" x1="160" y1="160" x2="160" y2="1050"/><text x="150" y="150" class="sheetText tiny">A</text>
    <line class="grid" x1="420" y1="160" x2="420" y2="1050"/><text x="410" y="150" class="sheetText tiny">B</text>
    <line class="grid" x1="680" y1="160" x2="680" y2="1050"/><text x="670" y="150" class="sheetText tiny">C</text>
    <line class="grid" x1="940" y1="160" x2="940" y2="1050"/><text x="930" y="150" class="sheetText tiny">D</text>
    <line class="grid" x1="1200" y1="160" x2="1200" y2="1050"/><text x="1190" y="150" class="sheetText tiny">E</text>
    <line class="grid" x1="1460" y1="160" x2="1460" y2="1050"/><text x="1450" y="150" class="sheetText tiny">F</text>
    <line class="grid" x1="1720" y1="160" x2="1720" y2="1050"/><text x="1710" y="150" class="sheetText tiny">G</text>
    <line class="grid" x1="1980" y1="160" x2="1980" y2="1050"/><text x="1970" y="150" class="sheetText tiny">H</text>
  </g>

  <!-- dimensions -->
  <line class="dim" x1="150" y1="1118" x2="760" y2="1118"/>
  <text x="410" y="1148" class="sheetText tiny">左侧工坊组团</text>
  <line class="dim" x1="810" y1="1118" x2="1435" y2="1118"/>
  <text x="1052" y="1148" class="sheetText tiny">中部接待与树庭</text>
  <line class="dim" x1="1480" y1="1118" x2="1980" y2="1118"/>
  <text x="1660" y="1148" class="sheetText tiny">右侧茶饮 / 展陈</text>

  <!-- north + scale -->
  <g transform="translate(1995 84)">
    <path class="north" d="M0,72 L30,0 L60,72 L30,56 Z"/>
    <text x="20" y="106" class="sheetText tiny" style="font-weight:700">N</text>
  </g>
  <g transform="translate(1760 1240)">
    <line x1="0" y1="0" x2="260" y2="0" stroke="#2b2925" stroke-width="5"/>
    <line x1="0" y1="-12" x2="0" y2="12" stroke="#2b2925" stroke-width="5"/>
    <line x1="130" y1="-12" x2="130" y2="12" stroke="#2b2925" stroke-width="5"/>
    <line x1="260" y1="-12" x2="260" y2="12" stroke="#2b2925" stroke-width="5"/>
    <text x="-2" y="38" class="sheetText tiny">0</text>
    <text x="108" y="38" class="sheetText tiny">5m</text>
    <text x="232" y="38" class="sheetText tiny">10m</text>
  </g>

  <!-- legend -->
  <rect x="86" y="1178" width="1090" height="150" class="legend"/>
  <text x="116" y="1220" class="sheetText" style="font-size:26px;font-weight:700">功能图例</text>
  <rect x="118" y="1248" width="32" height="24" class="service" stroke="#2b2925"/><text x="162" y="1268" class="sheetText note">入口服务</text>
  <rect x="285" y="1248" width="32" height="24" class="textile" stroke="#2b2925"/><text x="329" y="1268" class="sheetText note">纺织工坊</text>
  <rect x="452" y="1248" width="32" height="24" class="research" stroke="#2b2925"/><text x="496" y="1268" class="sheetText note">研发土墙</text>
  <rect x="620" y="1248" width="32" height="24" class="reception" stroke="#2b2925"/><text x="664" y="1268" class="sheetText note">接待讲解</text>
  <rect x="790" y="1248" width="32" height="24" class="tea" stroke="#2b2925"/><text x="834" y="1268" class="sheetText note">茶饮体验</text>
  <rect x="960" y="1248" width="32" height="24" class="exhibit" stroke="#2b2925"/><text x="1004" y="1268" class="sheetText note">展陈区</text>
  <rect x="118" y="1288" width="32" height="24" fill="url(#farmRows)" stroke="#8e9c48"/><text x="162" y="1308" class="sheetText note">农田台地</text>
  <rect x="285" y="1288" width="32" height="24" fill="url(#stonePaving)" stroke="#aa9a82"/><text x="329" y="1308" class="sheetText note">石铺平台</text>
  <circle cx="468" cy="1300" r="14" class="tree"/><text x="496" y="1308" class="sheetText note">保留树木</text>
  <line x1="620" y1="1300" x2="700" y2="1300" stroke="#b89562" stroke-width="10" opacity=".45"/><text x="718" y="1308" class="sheetText note">主要参观流线</text>
</svg>
