<svg xmlns="http://www.w3.org/2000/svg" width="2000" height="1200" viewBox="0 0 2000 1200">
  <defs>
    <style>
      .paper{fill:#fbf8ef}
      .title{font-family:"PingFang SC","Microsoft YaHei",Arial,sans-serif;fill:#2b2925;font-size:44px;font-weight:700}
      .subtitle{font-family:"PingFang SC","Microsoft YaHei",Arial,sans-serif;fill:#6f6659;font-size:22px}
      .label{font-family:"PingFang SC","Microsoft YaHei",Arial,sans-serif;fill:#2b2925;font-size:24px;font-weight:700}
      .small{font-family:"PingFang SC","Microsoft YaHei",Arial,sans-serif;fill:#504a42;font-size:18px}
      .tiny{font-family:"PingFang SC","Microsoft YaHei",Arial,sans-serif;fill:#5f564a;font-size:15px}
      .wall{fill:#58514a;stroke:#2f2b27;stroke-width:4;stroke-linejoin:round}
      .roof{fill:#6a625a;stroke:#2d2925;stroke-width:3;stroke-linejoin:round;opacity:.92}
      .outline{fill:none;stroke:#241f1b;stroke-width:5;stroke-linejoin:round}
      .door{stroke:#2d2925;stroke-width:4;fill:none;stroke-linecap:round}
      .furn{fill:#9b7651;stroke:#6a5038;stroke-width:2}
      .path{fill:none;stroke:#c2a26f;stroke-width:32;stroke-linecap:round;stroke-linejoin:round;opacity:.78}
      .pathEdge{fill:none;stroke:#8d7450;stroke-width:4;stroke-linecap:round;stroke-linejoin:round;opacity:.75}
      .contour{fill:none;stroke:#c9b96a;stroke-width:3;stroke-linecap:round;opacity:.6}
      .contourMajor{fill:none;stroke:#8fa866;stroke-width:4;stroke-linecap:round;opacity:.65}
      .field{fill:#d9d79a;stroke:#8b9a47;stroke-width:4;stroke-linejoin:round}
      .fieldLine{fill:none;stroke:#9fa64e;stroke-width:3;opacity:.75}
      .platform{fill:#ded1bb;stroke:#9b8664;stroke-width:4;stroke-linejoin:round}
      .stone{fill:#cfc6b7;stroke:#8b7e70;stroke-width:2}
      .tree{fill:#6f985b;stroke:#375a34;stroke-width:3}
      .tree2{fill:#89ad6c;stroke:#557847;stroke-width:2}
      .numCircle{fill:#2f2b27}
      .num{font-family:Arial,sans-serif;fill:#fff;font-size:21px;font-weight:700}
      .legendBox{fill:#fffaf0;stroke:#c4b69f;stroke-width:2}
      .arr{stroke:#776047;stroke-width:3;fill:none;marker-end:url(#arrow)}
      .north{fill:#2f2b27}
    </style>
    <marker id="arrow" viewBox="0 0 10 10" refX="8" refY="5" markerWidth="7" markerHeight="7" orient="auto-start-reverse">
      <path d="M0 0L10 5L0 10Z" fill="#776047"/>
    </marker>
    <pattern id="roofTiles" width="26" height="18" patternUnits="userSpaceOnUse">
      <rect width="26" height="18" fill="#6a625a"/>
      <path d="M0 9 Q6 3 13 9 T26 9M0 17H26" stroke="#3f3934" stroke-width="1.6" fill="none" opacity=".7"/>
    </pattern>
    <pattern id="farmRows" width="58" height="42" patternUnits="userSpaceOnUse">
      <rect width="58" height="42" fill="#d9d79a"/>
      <path d="M-10 40 C12 26 30 28 68 12M-10 22 C12 8 30 10 68 -6" stroke="#a2a65a" stroke-width="2" fill="none" opacity=".8"/>
    </pattern>
    <pattern id="stonePaving" width="56" height="42" patternUnits="userSpaceOnUse">
      <rect width="56" height="42" fill="#ded1bb"/>
      <path d="M0 14H56M0 28H56M18 0V14M40 14V28M12 28V42M48 28V42" stroke="#b8a88f" stroke-width="2" fill="none" opacity=".75"/>
    </pattern>
  </defs>

  <rect class="paper" width="2000" height="1200"/>
  <text x="76" y="76" class="title">建筑平面方案彩平图</text>
  <text x="78" y="116" class="subtitle">依据手绘草图整理：沿坡脚平台展开，下方为农田台地，建筑轮廓与功能关系保持原方案逻辑</text>

  <!-- uphill terrain -->
  <path class="contour" d="M-50,165 C165,110 330,155 510,130 C702,104 840,150 1015,120 C1230,82 1420,152 2050,96"/>
  <path class="contour" d="M-50,205 C170,150 330,192 510,168 C706,142 846,192 1018,160 C1230,124 1430,198 2050,138"/>
  <path class="contourMajor" d="M-50,250 C172,194 332,235 510,208 C710,180 850,236 1024,205 C1236,164 1435,248 2050,186"/>
  <path class="contour" d="M-50,300 C170,240 338,286 516,252 C716,218 850,292 1026,250 C1245,202 1440,308 2050,236"/>
  <path class="contour" d="M-50,355 C168,292 334,342 510,300 C710,256 850,350 1025,300 C1248,245 1445,374 2050,292"/>
  <path class="contourMajor" d="M-50,420 C164,350 324,410 500,352 C690,292 846,420 1020,352 C1242,288 1448,454 2050,360"/>
  <path class="contour" d="M-50,485 C142,406 302,476 482,408 C678,336 842,488 1015,410 C1230,340 1440,540 2050,430"/>

  <!-- site platform and farmland -->
  <path class="platform" d="M75,640 C235,545 405,522 585,535 C735,546 855,515 980,470 C1115,420 1260,440 1395,518 C1528,594 1608,700 1710,845 L1500,870 C1350,760 1225,710 1040,735 C865,758 735,696 570,688 C390,680 225,730 75,792 Z"/>
  <path class="field" fill="url(#farmRows)" d="M0,745 C160,700 260,780 430,742 C610,700 730,785 900,782 C1058,780 1230,730 1415,810 C1540,866 1660,860 2000,825 L2000,1200 L0,1200 Z"/>
  <path class="fieldLine" d="M115,895 C360,830 620,900 850,890 C1120,878 1360,930 1640,875"/>
  <path class="fieldLine" d="M160,1030 C430,960 700,1040 980,1010 C1240,982 1505,1045 2000,960"/>
  <path class="fieldLine" d="M410,742 L520,1200M805,790 L900,1200M1180,742 L1320,1200M1510,842 L1585,1200"/>
  <text x="620" y="910" class="label" style="fill:#647532;font-size:32px">农田台地</text>

  <path class="path" d="M115,590 C260,560 420,575 568,598 C720,622 835,605 980,540 C1118,478 1262,492 1395,575 C1508,645 1575,742 1640,850"/>
  <path class="pathEdge" d="M115,590 C260,560 420,575 568,598 C720,622 835,605 980,540 C1118,478 1262,492 1395,575 C1508,645 1575,742 1640,850"/>

  <!-- left arrival/service -->
  <g transform="rotate(-3 240 535)">
    <polygon class="roof" fill="url(#roofTiles)" points="70,430 235,405 285,475 95,515"/>
    <polygon class="wall" points="100,470 258,452 258,612 100,630"/>
    <polygon fill="#e6b07a" stroke="#2f2b27" stroke-width="3" points="124,494 230,484 230,580 124,592"/>
    <path class="door" d="M178,592 C178,560 196,540 230,540"/>
  </g>

  <!-- textile workshop -->
  <g transform="rotate(-1 455 455)">
    <polygon class="roof" fill="url(#roofTiles)" points="275,330 615,322 668,388 300,415"/>
    <polygon class="wall" points="305,380 640,365 640,535 305,548"/>
    <rect x="340" y="410" width="125" height="98" fill="#d8a577" stroke="#2f2b27" stroke-width="3"/>
    <rect x="488" y="404" width="110" height="105" fill="#d8a577" stroke="#2f2b27" stroke-width="3"/>
    <rect x="360" y="436" width="74" height="16" class="furn"/>
    <rect x="360" y="472" width="74" height="16" class="furn"/>
    <rect x="512" y="430" width="64" height="16" class="furn"/>
    <rect x="512" y="468" width="64" height="16" class="furn"/>
  </g>

  <!-- research soil wall -->
  <g transform="rotate(-2 700 510)">
    <polygon class="roof" fill="url(#roofTiles)" points="660,390 820,374 856,428 670,458"/>
    <polygon class="wall" points="682,430 832,410 835,548 682,560"/>
    <rect x="707" y="455" width="98" height="74" fill="#b9c69a" stroke="#2f2b27" stroke-width="3"/>
    <rect x="728" y="472" width="58" height="16" class="furn"/>
    <rect x="728" y="500" width="58" height="16" class="furn"/>
  </g>

  <!-- reception / interpretation -->
  <g transform="rotate(2 980 430)">
    <polygon class="roof" fill="url(#roofTiles)" points="890,290 1138,284 1218,360 910,405"/>
    <polygon class="wall" points="925,350 1185,322 1185,525 920,540"/>
    <rect x="955" y="382" width="92" height="118" fill="#c8b8dd" stroke="#2f2b27" stroke-width="3"/>
    <rect x="1062" y="370" width="94" height="124" fill="#c8b8dd" stroke="#2f2b27" stroke-width="3"/>
    <path d="M950,520 C1015,562 1105,560 1168,510 L1170,548 C1105,600 1015,600 946,552Z" fill="#c8b8dd" stroke="#2f2b27" stroke-width="3"/>
    <rect x="980" y="420" width="50" height="18" class="furn"/>
    <rect x="1082" y="410" width="54" height="18" class="furn"/>
    <rect x="1082" y="452" width="54" height="18" class="furn"/>
  </g>

  <!-- courtyard tree and small rest pavilion -->
  <circle cx="1155" cy="603" r="66" class="tree"/>
  <circle cx="1122" cy="598" r="28" class="tree2"/>
  <circle cx="1188" cy="614" r="26" class="tree2"/>
  <polygon fill="#efe1c8" stroke="#7e6c53" stroke-width="3" points="1012,638 1130,615 1152,692 1028,720"/>
  <text x="1032" y="681" class="small" transform="rotate(-10 1090 670)">休憩平台</text>

  <!-- tea experience, angled right-upper -->
  <g transform="rotate(18 1330 380)">
    <polygon class="roof" fill="url(#roofTiles)" points="1210,245 1465,220 1532,300 1238,350"/>
    <polygon class="wall" points="1248,292 1498,262 1500,455 1248,488"/>
    <rect x="1280" y="323" width="92" height="120" fill="#b7d2c5" stroke="#2f2b27" stroke-width="3"/>
    <rect x="1392" y="308" width="78" height="120" fill="#b7d2c5" stroke="#2f2b27" stroke-width="3"/>
    <circle cx="1325" cy="380" r="20" class="furn"/>
    <circle cx="1425" cy="366" r="18" class="furn"/>
    <rect x="1410" y="420" width="48" height="16" class="furn"/>
  </g>

  <!-- exhibition, angled right-lower -->
  <g transform="rotate(12 1435 650)">
    <polygon class="roof" fill="url(#roofTiles)" points="1255,505 1598,460 1690,545 1302,612"/>
    <polygon class="wall" points="1300,560 1655,505 1658,780 1300,835"/>
    <rect x="1335" y="600" width="116" height="170" fill="#efc27b" stroke="#2f2b27" stroke-width="3"/>
    <rect x="1472" y="575" width="130" height="178" fill="#efc27b" stroke="#2f2b27" stroke-width="3"/>
    <rect x="1362" y="628" width="52" height="30" class="furn"/>
    <rect x="1362" y="700" width="52" height="30" class="furn"/>
    <rect x="1504" y="612" width="56" height="30" class="furn"/>
    <rect x="1504" y="688" width="56" height="30" class="furn"/>
  </g>

  <!-- paving texture overlay on platform -->
  <path fill="url(#stonePaving)" opacity=".42" d="M75,640 C235,545 405,522 585,535 C735,546 855,515 980,470 C1115,420 1260,440 1395,518 C1528,594 1608,700 1710,845 L1500,870 C1350,760 1225,710 1040,735 C865,758 735,696 570,688 C390,680 225,730 75,792 Z"/>

  <!-- labels and numbering -->
  <g>
    <circle cx="177" cy="555" r="21" class="numCircle"/><text x="171" y="563" class="num">1</text>
    <text x="78" y="515" class="label">入口服务</text>
    <text x="78" y="540" class="tiny">售票 / 候场 / 灰空间</text>

    <circle cx="463" cy="455" r="21" class="numCircle"/><text x="457" y="463" class="num">2</text>
    <text x="302" y="303" class="label">纺织工坊</text>
    <text x="302" y="328" class="tiny">织机体验 / 手作课程</text>

    <circle cx="755" cy="496" r="21" class="numCircle"/><text x="749" y="504" class="num">3</text>
    <text x="646" y="356" class="label">研发土墙</text>
    <text x="646" y="381" class="tiny">材料样本 / 研学讨论</text>

    <circle cx="1042" cy="455" r="21" class="numCircle"/><text x="1036" y="463" class="num">4</text>
    <text x="930" y="258" class="label">接待讲解厅</text>
    <text x="930" y="283" class="tiny">序厅 / 讲解 / 公共服务</text>

    <circle cx="1155" cy="603" r="21" class="numCircle"/><text x="1149" y="611" class="num">5</text>
    <text x="1198" y="627" class="label">树庭</text>
    <text x="1198" y="652" class="tiny">保留乔木 / 石铺地</text>

    <circle cx="1388" cy="370" r="21" class="numCircle"/><text x="1382" y="378" class="num">6</text>
    <text x="1466" y="304" class="label">茶饮体验</text>
    <text x="1466" y="329" class="tiny">茶席 / 吧台 / 备餐</text>

    <circle cx="1485" cy="672" r="21" class="numCircle"/><text x="1479" y="680" class="num">7</text>
    <text x="1588" y="708" class="label">展陈区</text>
    <text x="1588" y="733" class="tiny">村史 / 工艺 / 产品</text>

    <circle cx="1088" cy="672" r="21" class="numCircle"/><text x="1082" y="680" class="num">8</text>
    <text x="878" y="755" class="label">农田观景休憩</text>
    <text x="878" y="780" class="tiny">田埂边坐凳 / 小平台</text>
  </g>

  <path class="arr" d="M120,690 C305,645 420,665 570,688 C735,714 880,705 1040,668 C1245,620 1410,676 1590,850"/>
  <text x="135" y="728" class="small" style="fill:#776047;font-weight:700">主要参观流线</text>

  <!-- legend -->
  <rect x="74" y="930" width="610" height="205" rx="0" class="legendBox"/>
  <text x="106" y="972" class="label" style="font-size:26px">功能色彩图例</text>
  <rect x="108" y="1002" width="34" height="24" fill="#e6b07a" stroke="#2f2b27"/><text x="156" y="1022" class="small">入口服务</text>
  <rect x="276" y="1002" width="34" height="24" fill="#d8a577" stroke="#2f2b27"/><text x="324" y="1022" class="small">纺织工坊</text>
  <rect x="452" y="1002" width="34" height="24" fill="#b9c69a" stroke="#2f2b27"/><text x="500" y="1022" class="small">研发土墙</text>
  <rect x="108" y="1044" width="34" height="24" fill="#c8b8dd" stroke="#2f2b27"/><text x="156" y="1064" class="small">接待讲解</text>
  <rect x="276" y="1044" width="34" height="24" fill="#b7d2c5" stroke="#2f2b27"/><text x="324" y="1064" class="small">茶饮体验</text>
  <rect x="452" y="1044" width="34" height="24" fill="#efc27b" stroke="#2f2b27"/><text x="500" y="1064" class="small">展陈区</text>
  <rect x="108" y="1086" width="34" height="24" fill="url(#farmRows)" stroke="#8b9a47"/><text x="156" y="1106" class="small">农田台地</text>
  <rect x="276" y="1086" width="34" height="24" fill="url(#stonePaving)" stroke="#8b7e70"/><text x="324" y="1106" class="small">石铺平台</text>
  <circle cx="469" cy="1098" r="15" class="tree"/><text x="500" y="1106" class="small">保留树木</text>

  <!-- north and scale -->
  <g transform="translate(1805 88)">
    <path class="north" d="M0,70 L30,0 L60,70 L30,55 Z"/>
    <text x="20" y="104" class="small" style="font-weight:700">N</text>
  </g>
  <g transform="translate(1460 1040)">
    <line x1="0" y1="0" x2="260" y2="0" stroke="#2f2b27" stroke-width="5"/>
    <line x1="0" y1="-12" x2="0" y2="12" stroke="#2f2b27" stroke-width="5"/>
    <line x1="130" y1="-12" x2="130" y2="12" stroke="#2f2b27" stroke-width="5"/>
    <line x1="260" y1="-12" x2="260" y2="12" stroke="#2f2b27" stroke-width="5"/>
    <text x="-3" y="40" class="tiny">0</text>
    <text x="108" y="40" class="tiny">5m</text>
    <text x="232" y="40" class="tiny">10m</text>
  </g>
</svg>
